<svg viewBox="0 0 118 121" fill="none" xmlns="http://www.w3.org/2000/svg">
  <path d="M62.6289 60.1142C62.6289 62.4425 60.7594 64.3298 58.4531 64.3298C56.1469 64.3298 54.2772 62.4425 54.2772 60.1142C54.2772 57.7861 56.1469 55.8987 58.4531 55.8987C60.7594 55.8987 62.6289 57.7861 62.6289 60.1142Z" fill="#FFA500" />
  <path d="M35.8601 64.5476L34.068 64.8994C34.8299 68.8565 36.526 72.5708 39.012 75.7257C41.4979 78.8807 44.701 81.3844 48.3491 83.0242L49.0909 81.3426C42.3357 78.3016 37.3005 72.0718 35.8601 64.5476Z" fill="#FFA500" />
  <path d="M30.4759 65.6044L20.4682 67.5683C21.6551 73.7326 24.297 79.5181 28.1694 84.4326C32.0417 89.3472 37.0314 93.2474 42.714 95.8015L46.8597 86.4016C38.4949 82.6361 32.2596 74.9217 30.4759 65.6044Z" fill="#FFA500" />
  <path d="M60.2995 38.8087L59.2079 51.4044C63.6383 51.7909 67.1155 55.5416 67.1155 60.1144C67.1155 60.7912 67.0369 61.4489 66.8928 62.0814L79.0955 64.9255C79.4561 63.3476 79.6383 61.7336 79.6383 60.1144C79.6383 49.0835 71.1848 39.7701 60.2995 38.8087Z" fill="#FFA500" />
  <path d="M60.7894 33.1539L60.6096 35.1312C73.3192 36.2348 83.2945 46.9976 83.2945 60.1142C83.2945 62.0542 83.076 63.9425 82.6632 65.756L84.4337 66.1694C84.8915 64.1715 85.1226 62.1274 85.1226 60.0768C85.1226 46.1753 74.5021 34.4245 60.7894 33.1539Z" fill="#FFA500" />
  <path d="M116.906 48.6439L96.4421 52.6597C96.9041 55.073 97.1489 57.5647 97.1489 60.1143C97.1489 81.689 79.8242 99.1788 58.4531 99.1788C47.5246 99.1788 37.6557 94.6037 30.6191 87.2492L15.6185 101.873C26.8348 113.599 42.3065 120.229 58.4531 120.229C91.1196 120.229 118 93.092 118 60.1143C118 56.2643 117.634 52.4232 116.906 48.6439Z" fill="#FFA500" />
  <path d="M58.4531 31.3452C64.5353 31.3452 70.1714 33.27 74.7992 36.5474L80.6481 28.1145C74.144 23.517 66.393 21.0499 58.4531 21.0499C53.9392 21.0499 49.46 21.8472 45.2183 23.4057L48.7039 33.0733C51.7455 31.9555 55.0286 31.3452 58.4531 31.3452Z" fill="#FFA500" />
  <path d="M63.4208 52.9521L92.6079 10.8715C88.3451 7.85824 83.7094 5.42205 78.8194 3.62536C73.9293 1.82854 68.8271 0.686676 63.6429 0.228722L59.2078 51.4043C60.7673 51.5405 62.2077 52.093 63.4208 52.9521Z" fill="#FFA500" />
  <path d="M116.906 48.6438L66.9561 58.4457C67.0597 58.986 67.1155 59.5434 67.1155 60.1142C67.1155 60.7909 67.0369 61.4487 66.8927 62.0812L116.474 73.637C117.488 69.2023 118 64.6656 118 60.1142C118 56.2642 117.634 52.4231 116.906 48.6438Z" fill="#FFA500" />
  <path d="M39.4494 63.8434L0 71.5848C0.727704 75.3639 1.81342 79.0638 3.24196 82.6336C4.67064 86.2032 6.43562 89.626 8.51266 92.855L42.2178 70.7581C40.8849 68.6905 39.9298 66.3525 39.4494 63.8434Z" fill="#FFA500" />
  <path d="M44.5295 73.6882L15.6186 101.873C18.2677 104.643 21.1743 107.149 24.2983 109.357C27.4223 111.565 30.7492 113.465 34.2331 115.031L50.5783 77.97C48.294 76.9417 46.2438 75.48 44.5295 73.6882Z" fill="#FFA500" />
  <path d="M58.453 31.3451V-4.57764e-05C58.341 -4.57764e-05 58.2288 0.000236511 58.1166 0.000797272C51.2836 0.0398636 44.5078 1.2659 38.0868 3.62522L48.7038 33.0732C51.7454 31.9554 55.0286 31.3451 58.453 31.3451Z" fill="#FFA500" />
  <path d="M45.0724 34.7093L30.4975 7.03648C28.3556 8.18622 26.2853 9.46691 24.2982 10.8715C22.3112 12.2762 20.4111 13.8021 18.6082 15.4407L39.3851 38.7354C41.1043 37.1716 43.0132 35.817 45.0724 34.7093Z" fill="#FFA500" />
  <path d="M37.6126 40.4952L14.9031 19.1166C13.4851 20.6516 12.1479 22.2605 10.8966 23.9368C9.64549 25.6129 8.48211 27.3542 7.41129 29.1533L34.023 45.2957C35.0531 43.5688 36.2582 41.9608 37.6126 40.4952Z" fill="#FFA500" />
  <path d="M24.7873 33.8896C24.8108 33.8587 24.8342 33.8275 24.8579 33.7966C24.9699 33.651 25.0831 33.5066 25.197 33.3627C25.2746 33.2643 25.3529 33.1665 25.4314 33.0689C25.5288 32.9479 25.6257 32.8266 25.7244 32.7068C25.8928 32.5016 26.0633 32.2983 26.2355 32.0963C26.3062 32.0136 26.3779 31.9319 26.4491 31.8497C26.5842 31.694 26.72 31.5392 26.8573 31.3854C26.9246 31.31 26.9919 31.2345 27.0598 31.1595C27.2584 30.94 27.4587 30.7218 27.6621 30.5064C27.6803 30.487 27.699 30.468 27.7173 30.4487C27.91 30.2454 28.1049 30.0443 28.3015 29.8446C28.3613 29.7841 28.4211 29.7238 28.4811 29.6638C28.6593 29.4851 28.839 29.3079 29.0203 29.1322C29.0621 29.0917 29.1033 29.0507 29.1452 29.0105C29.1574 28.9987 29.1694 28.9866 29.1818 28.9748C29.3822 28.7827 29.585 28.5933 29.7892 28.4053C29.8608 28.3393 29.9332 28.2742 30.0053 28.2086C30.1564 28.0713 30.3086 27.935 30.4617 27.7998C30.5485 27.7231 30.6353 27.6461 30.7228 27.5701C30.907 27.41 31.0926 27.2515 31.2796 27.0948C31.4147 26.9813 31.5513 26.8696 31.688 26.7577C31.7853 26.678 31.8829 26.5982 31.981 26.5194C32.1256 26.403 32.2712 26.2875 32.4174 26.173C32.464 26.1366 32.511 26.1006 32.5577 26.0644C34.4185 24.62 36.4007 23.3275 38.4868 22.2054L36.4767 18.3891C32.744 20.3927 29.2972 22.8976 26.2306 25.8355C23.164 28.7733 20.5057 32.117 18.3285 35.7753L21.9993 38.002C22.8504 36.5747 23.7825 35.2024 24.7873 33.8896Z" fill="#FFA500" />
</svg>